<svg xmlns="http://www.w3.org/2000/svg" viewBox="0 0 56.87 43.68"><defs><style>.cls-1{fill:#fbb03b;}.cls-2{fill:#e58126;}.cls-3{fill:#535b65;}.cls-4{fill:#28292e;}.cls-5{fill:#fff;}</style></defs><title>Asset 5</title><g id="Layer_2" data-name="Layer 2"><g id="Layer_1-2" data-name="Layer 1"><path class="cls-1" d="M28.44,1.69c-17,0-26.75,15.52-25.29,34.94,0,0,13.32,1.44,25.29,1.44s25.29-1.44,25.29-1.44C55.19,17.2,45.42,1.69,28.44,1.69Z"/><path class="cls-2" d="M28.44,0V23.12h0c3.25,0,4.41-9.45,4.85-20.94C32.47.63,30.05,0,28.44,0Z"/><path class="cls-2" d="M28.44,0V23.12h0c-3.25,0-4.41-9.45-4.85-20.94C24.4.63,26.82,0,28.44,0Z"/><path class="cls-2" d="M46.49,9.82c0-3.42-4.77-6.43-6.31-5.17,1.34,8.52-1.93,14.68.58,14.68C43.11,18.33,46.49,13.71,46.49,9.82Z"/><path class="cls-2" d="M10.38,9.82c0-3.42,4.77-6.43,6.31-5.17-1.34,8.52,1.93,14.68-.58,14.68C13.76,18.33,10.38,13.71,10.38,9.82Z"/><path class="cls-2" d="M56.84,36.67a8.8,8.8,0,0,0-3-3,131,131,0,0,1-25.42,2.55A131,131,0,0,1,3,33.69a8.8,8.8,0,0,0-3,3c-.69,1.57,10.21,7,28.41,7S57.53,38.25,56.84,36.67Z"/><polygon class="cls-3" points="53.87 26.85 33.27 26.85 33.27 21.54 52.98 21.54 53.87 26.85"/><polygon class="cls-3" points="3 26.85 23.6 26.85 23.6 21.54 3.9 21.54 3 26.85"/><circle class="cls-4" cx="28.44" cy="24.19" r="12.03"/><circle class="cls-5" cx="28.44" cy="24.19" r="9.08"/></g></g></svg>